# xmcd CD database file
#
# Track frame offsets:
#	150
#	20451
#	48885
#	89440
#	123589
#	146503
#	188616
#	223803
#	241112
#
# Disc length: 3411 seconds
#
# Revision: 0
# Processed by: cddbd v1.5.2PL0 Copyright (c) Steve Scherf et al.
# Submitted via: CDex 1.70beta2
#
DISCID=770d5109
DTITLE=Simcock - Garland - Sirkis - Lighthouse
DYEAR=2012
DGENRE=Jazz
TTITLE0=Space Junk
TTITLE1=Weathergirls
TTITLE2=One Morning
TTITLE3=Above The Sun
TTITLE4=The Wind On The Water
TTITLE5=King Barolo
TTITLE6=Wax Lyrical
TTITLE7=Devilled
TTITLE8=Tawel Nawr
EXTD=YEAR: 2012
EXTT0=
EXTT1=
EXTT2=
EXTT3=
EXTT4=
EXTT5=
EXTT6=
EXTT7=
EXTT8=
PLAYORDER=
